<svg width="144" height="26" viewBox="0 0 144 26" fill="none" xmlns="http://www.w3.org/2000/svg">
<path d="M71.292 0.519531C73.2545 0.656596 74.9949 1.17202 76.6631 2.10938C76.7491 2.15756 76.8097 2.1908 76.8672 2.22461C76.9525 2.27466 77.0317 2.32494 77.1807 2.41895C79.7528 4.0401 81.6638 6.57944 82.5088 9.49902C82.8207 10.5787 82.9764 11.6173 82.998 12.7725C83.0556 15.8316 82.0044 18.7788 80.0273 21.1064C79.8043 21.369 79.5415 21.65 79.2725 21.915C79.0914 22.0934 78.9074 22.2654 78.7314 22.4189C76.849 24.062 74.5139 25.1053 72.0479 25.4062C69.7555 25.686 67.4086 25.3325 65.3389 24.3945C63.9154 23.7494 62.667 22.8729 61.5566 21.7412C59.5746 19.7206 58.3345 17.0704 58.0566 14.2607C58.0248 13.937 58.0096 13.7438 58.0039 13.4795C58.0011 13.3502 58 13.2038 58 13.0166C58 12.7224 58.0032 12.5221 58.0117 12.333C58.0203 12.1557 58.0339 11.9873 58.0566 11.7598C58.2378 9.92416 58.8157 8.16837 59.7598 6.58398C61.0985 4.33764 63.1378 2.54708 65.5391 1.51074C66.4296 1.12653 67.3986 0.839379 68.3467 0.677734C68.8898 0.585153 69.3095 0.541219 70.0098 0.50293C70.1658 0.49446 71.1058 0.506506 71.292 0.519531ZM69.9092 2.09668C68.3782 2.19209 66.9655 2.57294 65.627 3.25195C65.2027 3.46712 64.8975 3.64715 64.4688 3.93457C63.4809 4.59714 62.5795 5.45935 61.8467 6.44043C59.4199 9.69012 59.0111 14.0468 60.792 17.6924C62.178 20.5287 64.7446 22.631 67.791 23.4258C69.0198 23.7464 70.2619 23.8528 71.498 23.7432C73.3968 23.5749 75.2306 22.9082 76.7725 21.8252C79.4721 19.9292 81.1398 16.9804 81.3818 13.6729C81.4951 12.1323 81.2462 10.4986 80.6758 9.02246C79.5068 5.99903 77.0655 3.66214 74.0049 2.63867C73.0801 2.32948 72.1548 2.1525 71.168 2.0957C70.9157 2.08118 70.1461 2.08195 69.9092 2.09668ZM69.5645 5.41797C69.5764 5.42523 69.5576 5.4418 69.4346 5.53027C69.1203 5.75609 68.7562 6.09565 68.5723 6.33398C68.2779 6.71557 68.1151 7.0532 68.0439 7.43164C68.0212 7.55164 68.0164 7.62028 68.0176 7.81543C68.0193 8.29168 68.1287 8.68621 68.3018 8.84473C68.4754 9.00289 68.6615 9.01979 68.916 8.90137C68.9501 8.88537 68.9856 8.87214 68.9941 8.87207C69.006 8.88525 69.0127 10.5146 69.0127 10.5146L69.0156 11.4277L69.0488 11.4971C69.1207 11.6472 69.2887 11.8509 69.4258 11.9541C69.5192 12.024 69.6998 12.1117 69.8096 12.1406C69.8665 12.1556 69.9566 12.1657 70.0488 12.1689C70.1558 12.1726 70.267 12.1673 70.3369 12.1533C70.6113 12.0984 70.9291 11.9661 71.2529 11.7715C71.405 11.6802 71.7815 11.4157 71.9102 11.3105L71.9541 11.2754V10.9912C71.9541 10.9912 71.9538 10.6352 71.9492 10.3223C71.9458 10.1058 71.9402 9.90995 71.9316 9.86621C71.8964 9.68716 71.8387 9.5205 71.7471 9.33691C71.5774 8.99489 71.3823 8.75161 71.1113 8.54785L71.0186 8.47852L71.2236 8.47461C71.4605 8.47027 71.607 8.48358 71.8604 8.53418C72.1256 8.58719 72.3377 8.66518 72.4727 8.75781L72.5293 8.7959L72.7109 8.61719C73.4028 7.93387 74.1618 7.39384 75.0449 6.95605C75.7651 6.5991 76.382 6.37692 77.0498 6.23535C77.3122 6.17969 77.3494 6.17303 77.3506 6.17969C77.3506 6.19044 77.2766 6.2834 77.0557 6.55273C76.7773 6.89132 76.5197 7.21334 76.292 7.50781C76.066 7.80015 75.8692 8.06554 75.7109 8.29199C75.5523 8.51783 75.1958 9.07862 75.1709 9.14062C75.1544 9.18234 75.1405 9.3186 75.1279 9.58887C75.1177 9.81164 75.1079 10.1258 75.0977 10.5537V11.5166C75.0974 12.1811 73.2151 13.3197 73.2012 13.3281L75.0977 14.0566C75.0979 14.0653 75.119 14.79 75.1416 15.4453C75.1592 15.9682 75.1776 16.447 75.1885 16.4834C75.2107 16.5539 75.3873 16.6735 75.5342 16.7178C75.9015 16.8283 76.4138 16.6998 76.9639 16.3584C77.0391 16.3118 77.1782 16.2126 77.3164 16.1094C77.432 16.0231 77.5476 15.9337 77.625 15.8691C77.8026 15.7206 78.0817 15.4657 78.293 15.2588C78.4034 15.151 78.4954 15.0644 78.4971 15.0664C78.5032 15.0771 78.4159 15.2551 78.3037 15.4658C78.2382 15.589 78.1644 15.7243 78.0967 15.8428C77.2539 17.3138 76.0488 18.6965 74.8115 19.6123C74.6907 19.7015 74.1118 20.0862 74.0498 20.1182C74.0164 20.1355 74.0059 20.1356 73.9883 20.1221C73.9472 20.09 73.2406 19.4917 72.7832 19.1025C72.4994 18.8606 72.2861 18.5243 72.2861 18.1514V15.7334C72.2861 15.0088 71.6979 14.4209 70.9736 14.4209H70.3174C69.5933 14.4211 69.0059 15.0089 69.0059 15.7334V17.584C69.0059 18.3206 69.254 19.0358 69.71 19.6143L70.4912 20.6055C70.4851 20.608 70.4792 20.6094 70.4736 20.6104C70.464 20.612 70.4539 20.6123 70.4414 20.6123C70.262 20.6123 69.4377 20.4624 68.9531 20.3418C67.1607 19.8959 65.7633 19.1385 64.9189 18.1553C64.8149 18.0342 64.6438 17.81 64.6494 17.8027C64.6511 17.801 64.6974 17.8103 64.752 17.8232C65.2172 17.9342 65.5644 17.8945 65.75 17.709C65.7932 17.6657 65.8264 17.6191 65.8525 17.5625C65.8729 17.5177 65.8891 17.4665 65.9033 17.4053C65.9255 17.3093 65.9268 17.1835 65.9268 14.2734C65.9268 12.4148 65.929 11.6735 65.917 11.3535C65.9073 11.1044 65.8891 11.1105 65.8555 11.043C65.7888 10.9094 65.677 10.8116 65.5234 10.751C65.4461 10.7206 65.4241 10.7177 65.2637 10.7178C65.1614 10.7178 65.0873 10.7229 65.0117 10.7393C64.9424 10.7542 64.8718 10.778 64.7764 10.8164C64.2593 11.0238 63.7118 11.4827 62.9551 12.3418C62.2491 13.1441 61.5773 14.1268 61.1719 14.9502C61.1265 15.0427 61.0852 15.1191 61.0801 15.1221C61.0721 15.123 61.0662 15.1133 61.0605 15.085C61.0554 15.0575 61.0502 15.0128 61.0439 14.9443C60.9916 14.356 61.0956 13.6208 61.333 12.8906C61.6365 11.957 62.1887 10.9903 62.9141 10.1221C63.5353 9.37797 64.5736 8.3231 65.2637 7.73438C66.5984 6.59617 67.8438 5.90563 69.3408 5.47266C69.4577 5.43897 69.5577 5.4145 69.5645 5.41797ZM21.3174 9.29297C22.7454 9.29297 23.8299 9.66554 24.5703 10.4102C25.3237 11.1418 25.7011 12.1749 25.7012 13.5098V19.7686H23.8369L23.7783 18.1182C23.6594 18.3743 23.4946 18.6104 23.2812 18.8252C22.9243 19.1846 22.4746 19.4732 21.9326 19.6914C21.4037 19.8968 20.8285 20 20.207 20C19.1098 20 18.2304 19.7563 17.5693 19.2686C16.9216 18.7808 16.5978 18.0936 16.5977 17.208C16.5977 16.3224 16.8683 15.6353 17.4102 15.1475C17.9654 14.6468 18.8185 14.2866 19.9688 14.0684L23.5986 13.3945C23.5986 12.5987 23.4068 12.0082 23.0234 11.623C22.64 11.2251 22.071 11.0264 21.3174 11.0264C20.6434 11.0264 20.1148 11.1737 19.7314 11.4688C19.348 11.7512 19.0829 12.1754 18.9375 12.7402L16.7764 12.6055C16.9747 11.5785 17.4632 10.7693 18.2432 10.1787C19.0364 9.5882 20.0614 9.29301 21.3174 9.29297ZM41.3545 9.29297C42.3063 9.29303 43.146 9.51084 43.873 9.94727C44.6001 10.3709 45.1619 10.9873 45.5586 11.7959C45.9685 12.6047 46.1738 13.581 46.1738 14.7236V15.2432H38.5977C38.6505 16.2443 38.9211 16.9954 39.4102 17.4961C39.9126 17.9968 40.5874 18.2471 41.4336 18.2471C42.0549 18.247 42.5706 18.1066 42.9805 17.8242C43.3903 17.5418 43.6743 17.1625 43.833 16.6875L46.0146 16.8223C45.737 17.7723 45.1889 18.5432 44.3691 19.1338C43.5626 19.7115 42.5766 20 41.4131 20C40.382 19.9999 39.4899 19.7812 38.7363 19.3447C37.996 18.9083 37.4206 18.2862 37.0107 17.4775C36.6141 16.6688 36.416 15.7248 36.416 14.6465C36.416 13.5681 36.6141 12.6309 37.0107 11.835C37.4206 11.0262 37.9959 10.4033 38.7363 9.9668C39.4767 9.51754 40.3497 9.29297 41.3545 9.29297ZM129.851 9.29297C130.803 9.29297 131.643 9.51077 132.37 9.94727C133.097 10.3709 133.659 10.9873 134.056 11.7959C134.466 12.6047 134.671 13.581 134.671 14.7236V15.2432H127.095C127.148 16.2444 127.418 16.9954 127.907 17.4961C128.41 17.9968 129.084 18.2471 129.931 18.2471C130.552 18.247 131.068 18.1066 131.478 17.8242C131.887 17.5418 132.171 17.1625 132.33 16.6875L134.512 16.8223C134.234 17.7723 133.685 18.5432 132.865 19.1338C132.059 19.7113 131.073 20 129.91 20C128.879 19.9999 127.987 19.7812 127.233 19.3447C126.493 18.9083 125.918 18.2862 125.508 17.4775C125.111 16.6688 124.913 15.7248 124.913 14.6465C124.913 13.5681 125.111 12.6309 125.508 11.835C125.918 11.0262 126.493 10.4033 127.233 9.9668C127.974 9.51764 128.846 9.29304 129.851 9.29297ZM139.419 9.29297C140.331 9.29301 141.097 9.44695 141.719 9.75488C142.34 10.0501 142.823 10.4544 143.167 10.9678C143.524 11.4685 143.749 12.034 143.842 12.6631L141.68 12.7783C141.614 12.4191 141.481 12.1112 141.283 11.8545C141.098 11.5849 140.847 11.3795 140.529 11.2383C140.212 11.0842 139.835 11.0068 139.398 11.0068C138.724 11.0069 138.222 11.135 137.892 11.3916C137.561 11.6484 137.396 11.9827 137.396 12.3936C137.396 12.7016 137.469 12.952 137.614 13.1445C137.773 13.3369 138.024 13.4977 138.367 13.626C138.711 13.7415 139.168 13.8437 139.736 13.9336C140.834 14.1133 141.693 14.3378 142.314 14.6074C142.936 14.8641 143.372 15.1853 143.623 15.5703C143.874 15.9555 144 16.4245 144 16.9766C144 17.6184 143.815 18.164 143.444 18.6133C143.074 19.0625 142.566 19.4094 141.918 19.6533C141.27 19.8844 140.523 20 139.677 20C138.685 20 137.845 19.8519 137.157 19.5566C136.483 19.2614 135.961 18.8572 135.591 18.3438C135.221 17.8174 135.009 17.2136 134.956 16.5332L137.118 16.4375C137.224 17.0023 137.475 17.4514 137.872 17.7852C138.269 18.1188 138.87 18.2861 139.677 18.2861C140.338 18.2861 140.86 18.1829 141.243 17.9775C141.626 17.7722 141.818 17.4452 141.818 16.9961C141.818 16.7523 141.752 16.5467 141.62 16.3799C141.501 16.2002 141.263 16.0521 140.906 15.9365C140.549 15.8081 140.02 15.6859 139.319 15.5703C138.275 15.3778 137.455 15.1532 136.86 14.8965C136.266 14.6398 135.842 14.3129 135.591 13.915C135.34 13.5171 135.214 13.0354 135.214 12.4707C135.214 11.5335 135.571 10.7693 136.285 10.1787C137.012 9.58821 138.057 9.29297 139.419 9.29297ZM2.1416 12.624L8.07227 6.0957H10.6699L5.27539 12.0664L11.0273 19.7686H8.50879L3.84766 13.5293L2.1416 15.3779V19.7686H0V6.0957H2.1416V12.624ZM13.2197 11.4707C13.3831 10.903 13.6212 10.4654 13.9365 10.1592C14.386 9.73563 14.9877 9.52444 15.7412 9.52441H16.7529V11.3535H15.7412C15.2124 11.3535 14.7691 11.4366 14.4121 11.6035C14.0553 11.7704 13.7847 12.0275 13.5996 12.374C13.4278 12.7206 13.3418 13.1698 13.3418 13.7217V19.7686H11.2393V9.52441H13.1631L13.2197 11.4707ZM29.4004 14.5889L34.1396 9.52441H36.7979L32.6729 13.8379L36.9561 19.7686H34.5371L31.2646 15.1084L29.4004 17.0342V19.7686H27.2979V6.0957H29.4004V14.5889ZM52.29 9.29297C53.0834 9.29297 53.7382 9.46587 54.2539 9.8125C54.7827 10.1463 55.1789 10.6088 55.4434 11.1992C55.721 11.7769 55.8603 12.4381 55.8604 13.1826V19.7686H53.7578V13.7988C53.7578 13.1955 53.6918 12.6881 53.5596 12.2773C53.4274 11.8668 53.2092 11.5522 52.9053 11.334C52.6012 11.1157 52.2041 11.0068 51.7148 11.0068C50.9745 11.0069 50.3729 11.2447 49.9102 11.7197C49.4476 12.1947 49.2159 12.8876 49.2158 13.7988V19.7686H47.1133V9.52441H49.0371L49.0889 11.292C49.2061 10.9921 49.3532 10.7296 49.5332 10.5059C49.8637 10.0951 50.2672 9.79314 50.7432 9.60059C51.2191 9.39524 51.7348 9.29297 52.29 9.29297ZM96.8418 19.7686H94.5615L93.2725 16.2061H87.5205L86.251 19.7686H83.9707L89.0479 6.0957H91.7646L96.8418 19.7686ZM99.2217 19.7686H97.1191V9.52441H99.2217V19.7686ZM103.158 11.4707C103.322 10.9029 103.56 10.4654 103.875 10.1592C104.324 9.73559 104.926 9.52449 105.68 9.52441H106.691V11.3535H105.68C105.151 11.3536 104.708 11.4368 104.352 11.6035C103.995 11.7704 103.723 12.0274 103.538 12.374C103.366 12.7206 103.28 13.1698 103.28 13.7217V19.7686H101.178V9.52441H103.102L103.158 11.4707ZM109.552 19.7686H107.45V6.0957H109.552V19.7686ZM113.315 19.7686H111.213V9.52441H113.315V19.7686ZM120.448 9.29297C121.242 9.29298 121.896 9.46588 122.412 9.8125C122.941 10.1463 123.337 10.6088 123.602 11.1992C123.879 11.7769 124.019 12.4381 124.019 13.1826V19.7686H121.916V13.7988C121.916 13.1955 121.85 12.6881 121.718 12.2773C121.586 11.8668 121.367 11.5522 121.063 11.334C120.759 11.1157 120.362 11.0068 119.873 11.0068C119.133 11.0068 118.531 11.2447 118.068 11.7197C117.606 12.1947 117.374 12.8875 117.374 13.7988V19.7686H115.271V9.52441H117.195L117.247 11.292C117.364 10.9922 117.511 10.7296 117.691 10.5059C118.022 10.0951 118.425 9.79314 118.901 9.60059C119.377 9.39526 119.893 9.29297 120.448 9.29297ZM20.5049 15.5127C19.8704 15.6282 19.4207 15.8147 19.1562 16.0713C18.9051 16.3151 18.7794 16.6297 18.7793 17.0146C18.7793 17.4511 18.9312 17.7922 19.2354 18.0361C19.5526 18.267 19.9889 18.3818 20.5439 18.3818C21.1786 18.3818 21.7214 18.2672 22.1709 18.0361C22.6204 17.7922 22.9705 17.4578 23.2217 17.0342C23.4729 16.6105 23.5986 16.129 23.5986 15.5898V14.9355L20.5049 15.5127ZM88.1953 14.3193H92.6182L90.3965 8.08008L88.1953 14.3193ZM41.3545 11.0264C40.6009 11.0264 39.9794 11.2576 39.4902 11.7197C39.0142 12.1691 38.7167 12.8301 38.5977 13.7031H43.9521C43.886 12.7916 43.6147 12.1172 43.1387 11.6807C42.676 11.2444 42.0814 11.0265 41.3545 11.0264ZM129.851 11.0264C129.097 11.0265 128.475 11.2576 127.986 11.7197C127.511 12.1691 127.214 12.8304 127.095 13.7031H132.449C132.383 12.7916 132.112 12.1172 131.636 11.6807C131.173 11.2443 130.578 11.0264 129.851 11.0264ZM99.2607 8.04102H97.0791V6H99.2607V8.04102ZM113.354 8.04102H111.174V6H113.354V8.04102Z" fill="#FFFFFF"/>
</svg>
